<svg width="100" height="28" viewBox="0 0 100 28" fill="none" xmlns="http://www.w3.org/2000/svg">
<path d="M12.02 9.976C13.1213 10.1813 14.0267 10.732 14.736 11.628C15.4453 12.524 15.8 13.5507 15.8 14.708C15.8 15.7533 15.5387 16.6773 15.016 17.48C14.512 18.264 13.7747 18.88 12.804 19.328C11.8333 19.776 10.6853 20 9.36 20H0.932V0.456H8.996C10.3213 0.456 11.46 0.670666 12.412 1.1C13.3827 1.52933 14.1107 2.12667 14.596 2.892C15.1 3.65733 15.352 4.52533 15.352 5.496C15.352 6.63467 15.044 7.58667 14.428 8.352C13.8307 9.11733 13.028 9.65867 12.02 9.976ZM4.852 8.52H8.436C9.36933 8.52 10.088 8.31467 10.592 7.904C11.096 7.47467 11.348 6.868 11.348 6.084C11.348 5.3 11.096 4.69333 10.592 4.264C10.088 3.83467 9.36933 3.62 8.436 3.62H4.852V8.52ZM8.8 16.808C9.752 16.808 10.4893 16.584 11.012 16.136C11.5533 15.688 11.824 15.0533 11.824 14.232C11.824 13.392 11.544 12.7387 10.984 12.272C10.424 11.7867 9.668 11.544 8.716 11.544H4.852V16.808H8.8ZM22.8442 6.896C23.3482 6.07467 24.0015 5.43067 24.8042 4.964C25.6255 4.49733 26.5589 4.264 27.6042 4.264V8.38H26.5682C25.3362 8.38 24.4029 8.66933 23.7682 9.248C23.1522 9.82667 22.8442 10.8347 22.8442 12.272V20H18.9242V4.488H22.8442V6.896ZM29.2365 12.188C29.2365 10.62 29.5445 9.22933 30.1605 8.016C30.7952 6.80267 31.6445 5.86933 32.7085 5.216C33.7912 4.56267 34.9952 4.236 36.3205 4.236C37.4778 4.236 38.4858 4.46933 39.3445 4.936C40.2218 5.40267 40.9218 5.99067 41.4445 6.7V4.488H45.3925V20H41.4445V17.732C40.9405 18.46 40.2405 19.0667 39.3445 19.552C38.4672 20.0187 37.4498 20.252 36.2925 20.252C34.9858 20.252 33.7912 19.916 32.7085 19.244C31.6445 18.572 30.7952 17.6293 30.1605 16.416C29.5445 15.184 29.2365 13.7747 29.2365 12.188ZM41.4445 12.244C41.4445 11.292 41.2578 10.48 40.8845 9.808C40.5112 9.11733 40.0072 8.59467 39.3725 8.24C38.7378 7.86667 38.0565 7.68 37.3285 7.68C36.6005 7.68 35.9285 7.85733 35.3125 8.212C34.6965 8.56667 34.1925 9.08933 33.8005 9.78C33.4272 10.452 33.2405 11.2547 33.2405 12.188C33.2405 13.1213 33.4272 13.9427 33.8005 14.652C34.1925 15.3427 34.6965 15.8747 35.3125 16.248C35.9472 16.6213 36.6192 16.808 37.3285 16.808C38.0565 16.808 38.7378 16.6307 39.3725 16.276C40.0072 15.9027 40.5112 15.38 40.8845 14.708C41.2578 14.0173 41.4445 13.196 41.4445 12.244ZM55.6891 16.388L59.6091 4.488H63.7811L58.0411 20H53.2811L47.5691 4.488H51.7691L55.6891 16.388ZM64.9748 12.188C64.9748 10.62 65.2828 9.22933 65.8988 8.016C66.5334 6.80267 67.3828 5.86933 68.4468 5.216C69.5294 4.56267 70.7334 4.236 72.0588 4.236C73.2161 4.236 74.2241 4.46933 75.0828 4.936C75.9601 5.40267 76.6601 5.99067 77.1828 6.7V4.488H81.1308V20H77.1828V17.732C76.6788 18.46 75.9788 19.0667 75.0828 19.552C74.2054 20.0187 73.1881 20.252 72.0308 20.252C70.7241 20.252 69.5294 19.916 68.4468 19.244C67.3828 18.572 66.5334 17.6293 65.8988 16.416C65.2828 15.184 64.9748 13.7747 64.9748 12.188ZM77.1828 12.244C77.1828 11.292 76.9961 10.48 76.6228 9.808C76.2494 9.11733 75.7454 8.59467 75.1108 8.24C74.4761 7.86667 73.7948 7.68 73.0668 7.68C72.3388 7.68 71.6668 7.85733 71.0508 8.212C70.4348 8.56667 69.9308 9.08933 69.5388 9.78C69.1654 10.452 68.9788 11.2547 68.9788 12.188C68.9788 13.1213 69.1654 13.9427 69.5388 14.652C69.9308 15.3427 70.4348 15.8747 71.0508 16.248C71.6854 16.6213 72.3574 16.808 73.0668 16.808C73.7948 16.808 74.4761 16.6307 75.1108 16.276C75.7454 15.9027 76.2494 15.38 76.6228 14.708C76.9961 14.0173 77.1828 13.196 77.1828 12.244ZM99.7993 4.488L90.1953 27.336H86.0233L89.3833 19.608L83.1673 4.488H87.5633L91.5673 15.324L95.6273 4.488H99.7993Z" fill="white"/>
</svg>
